<svg xmlns="http://www.w3.org/2000/svg" viewBox="0 0 64 64" fill="none">
  <!-- Background -->
  <rect width="64" height="64" rx="14" fill="#111111"/>

  <!-- Open book left page -->
  <path d="M10 18 C10 16 12 15 14 15.5 L30 20 L30 48 L14 43 C12 42.5 10 41 10 39 Z" fill="#e8442a"/>

  <!-- Open book right page -->
  <path d="M54 18 C54 16 52 15 50 15.5 L34 20 L34 48 L50 43 C52 42.5 54 41 54 39 Z" fill="#f5b800"/>

  <!-- Spine -->
  <rect x="30" y="20" width="4" height="28" rx="1" fill="#ffffff" opacity="0.9"/>

  <!-- Left page lines -->
  <line x1="15" y1="26" x2="27" y2="27.5" stroke="#fff" stroke-width="1.5" stroke-linecap="round" opacity="0.5"/>
  <line x1="15" y1="31" x2="27" y2="32.5" stroke="#fff" stroke-width="1.5" stroke-linecap="round" opacity="0.5"/>
  <line x1="15" y1="36" x2="27" y2="37.5" stroke="#fff" stroke-width="1.5" stroke-linecap="round" opacity="0.5"/>

  <!-- Right page lines -->
  <line x1="37" y1="27.5" x2="49" y2="26" stroke="#000" stroke-width="1.5" stroke-linecap="round" opacity="0.3"/>
  <line x1="37" y1="32.5" x2="49" y2="31" stroke="#000" stroke-width="1.5" stroke-linecap="round" opacity="0.3"/>
  <line x1="37" y1="37.5" x2="49" y2="36" stroke="#000" stroke-width="1.5" stroke-linecap="round" opacity="0.3"/>
</svg>
